{
  "accessors": [
    {
      "bufferView": 2,
      "componentType": 5126,
      "count": 44395,
      "max": [
        3.322096824645996,
        1.993485689163208,
        3.2911314964294434
      ],
      "min": [
        -3.0828804969787598,
        -2.248523235321045,
        -3.246251106262207
      ],
      "type": "VEC3"
    },
    {
      "bufferView": 2,
      "byteOffset": 532740,
      "componentType": 5126,
      "count": 44395,
      "max": [
        0.9999004602432251,
        0.9998737573623657,
        0.9999851584434509
      ],
      "min": [
        -0.9999639987945557,
        -0.9994377493858337,
        -0.9997935891151428
      ],
      "type": "VEC3"
    },
    {
      "bufferView": 1,
      "componentType": 5126,
      "count": 44395,
      "max": [
        0.999415397644043,
        0.9999367594718933
      ],
      "min": [
        7.94827938079834e-05,
        0.0015236465260386467
      ],
      "type": "VEC2"
    },
    {
      "bufferView": 0,
      "componentType": 5125,
      "count": 251211,
      "type": "SCALAR"
    },
    {
      "bufferView": 2,
      "byteOffset": 1065480,
      "componentType": 5126,
      "count": 42653,
      "max": [
        3.3463664054870605,
        1.8451297283172607,
        3.2278199195861816
      ],
      "min": [
        -3.615220069885254,
        -2.177959442138672,
        -2.781221389770508
      ],
      "type": "VEC3"
    },
    {
      "bufferView": 2,
      "byteOffset": 1577316,
      "componentType": 5126,
      "count": 42653,
      "max": [
        0.9999170899391174,
        0.999919593334198,
        0.9997441172599792
      ],
      "min": [
        -0.9999043941497803,
        -0.9991704821586609,
        -0.9998486042022705
      ],
      "type": "VEC3"
    },
    {
      "bufferView": 1,
      "byteOffset": 355160,
      "componentType": 5126,
      "count": 42653,
      "max": [
        0.9999422430992126,
        0.9813695549964905
      ],
      "min": [
        8.78951177583076e-05,
        2.4847686290740967e-06
      ],
      "type": "VEC2"
    },
    {
      "bufferView": 0,
      "byteOffset": 1004844,
      "componentType": 5125,
      "count": 238905,
      "type": "SCALAR"
    }
  ],
  "asset": {
    "extras": {
      "author": "matousekfoto (https://sketchfab.com/matousekfoto)",
      "license": "CC-BY-4.0 (http://creativecommons.org/licenses/by/4.0/)",
      "source": "https://sketchfab.com/3d-models/concrete-block-5503fb840c1b478fa4b19cfa4b57a89e",
      "title": "Concrete block"
    },
    "generator": "Sketchfab-12.59.0",
    "version": "2.0"
  },
  "bufferViews": [
    {
      "buffer": 0,
      "byteLength": 1960464,
      "name": "floatBufferViews",
      "target": 34963
    },
    {
      "buffer": 0,
      "byteLength": 696384,
      "byteOffset": 1960464,
      "byteStride": 8,
      "name": "floatBufferViews",
      "target": 34962
    },
    {
      "buffer": 0,
      "byteLength": 2089152,
      "byteOffset": 2656848,
      "byteStride": 12,
      "name": "floatBufferViews",
      "target": 34962
    }
  ],
  "buffers": [
    {
      "byteLength": 4746000,
      "uri": "scene.bin"
    }
  ],
  "extensionsUsed": [
    "KHR_materials_unlit"
  ],
  "images": [
    {
      "uri": "textures/material0_baseColor.jpeg"
    },
    {
      "uri": "textures/material1_baseColor.jpeg"
    }
  ],
  "materials": [
    {
      "doubleSided": true,
      "extensions": {
        "KHR_materials_unlit": {}
      },
      "name": "material0",
      "pbrMetallicRoughness": {
        "baseColorTexture": {
          "index": 0
        },
        "metallicFactor": 0.0
      }
    },
    {
      "doubleSided": true,
      "extensions": {
        "KHR_materials_unlit": {}
      },
      "name": "material1",
      "pbrMetallicRoughness": {
        "baseColorTexture": {
          "index": 1
        },
        "metallicFactor": 0.0
      }
    }
  ],
  "meshes": [
    {
      "name": "Model_material0_0",
      "primitives": [
        {
          "attributes": {
            "NORMAL": 1,
            "POSITION": 0,
            "TEXCOORD_0": 2
          },
          "indices": 3,
          "material": 0,
          "mode": 4
        }
      ]
    },
    {
      "name": "Model_material1_0",
      "primitives": [
        {
          "attributes": {
            "NORMAL": 5,
            "POSITION": 4,
            "TEXCOORD_0": 6
          },
          "indices": 7,
          "material": 1,
          "mode": 4
        }
      ]
    }
  ],
  "nodes": [
    {
      "children": [
        1
      ],
      "matrix": [
        0.2621513260027264,
        0.07213660967731446,
        -0.33927701273209543,
        0.0,
        -0.21287804662427856,
        0.3692233959729876,
        -0.08598206201928296,
        0.0,
        0.27385311680192004,
        0.21795938129739584,
        0.2579420202116172,
        0.0,
        -0.12992583215236664,
        0.14177313446998596,
        -0.015884827822446792,
        1.0
      ],
      "name": "Sketchfab_model"
    },
    {
      "children": [
        2
      ],
      "matrix": [
        0.009999999776482582,
        0.0,
        0.0,
        0.0,
        0.0,
        0.0,
        0.009999999776482582,
        0.0,
        0.0,
        -0.009999999776482582,
        0.0,
        0.0,
        0.0,
        0.0,
        0.0,
        1.0
      ],
      "name": "concrete-grass-block.fbx"
    },
    {
      "children": [
        3
      ],
      "name": "RootNode"
    },
    {
      "children": [
        4,
        5
      ],
      "matrix": [
        100.0,
        0.0,
        0.0,
        0.0,
        0.0,
        -1.629206793918314e-05,
        -99.99999999999868,
        0.0,
        0.0,
        99.99999999999868,
        -1.629206793918314e-05,
        0.0,
        0.0,
        0.0,
        0.0,
        1.0
      ],
      "name": "Model"
    },
    {
      "mesh": 0,
      "name": "Model_material0_0"
    },
    {
      "mesh": 1,
      "name": "Model_material1_0"
    }
  ],
  "samplers": [
    {
      "magFilter": 9729,
      "minFilter": 9987,
      "wrapS": 10497,
      "wrapT": 10497
    }
  ],
  "scene": 0,
  "scenes": [
    {
      "name": "Sketchfab_Scene",
      "nodes": [
        0
      ]
    }
  ],
  "textures": [
    {
      "sampler": 0,
      "source": 0
    },
    {
      "sampler": 0,
      "source": 1
    }
  ]
}
